<svg xmlns="http://www.w3.org/2000/svg" viewBox="0 0 4096 2048"><defs><style>.cls-1{fill:#0039b9;}.cls-2{fill:#b3b3b3;}</style></defs><title>map</title><g id="ocean"><rect class="cls-1" width="4096" height="2057"/></g><g id="map"><path id="arctic" class="cls-2" d="M661.21,1939.86s55.59-9,81.92-40.57,70.22,0,70.22,0,49.74-67.62,87.77-63.11,84.85-31.56,137.51-27,140.43-63.11,190.17-40.57,134.58-4.51,134.58-4.51,26.33-45.08,46.81-45.08,160.91-9,187.25,36.06,32.18,117.21,32.18,117.21,29.26,45.08,70.22,4.51,70.22-9,70.22-9,38-67.62,73.14-67.62,73.14-94.67,117-81.14,105.33,31.56,122.88,54.1,73.14,112.7,87.77,108.19,70.22-90.16,70.22-90.16l87.77-72.13s105.33-9,158,22.54,105.33,40.57,105.33,40.57,38-18,38-40.57,99.47-81.14,125.81-63.11,105.33,81.14,128.73,81.14,152.14,49.59,178.47,49.59,131.66,13.52,155.06,0,102.4-45.08,184.32-36.06,152.14,103.69,152.14,103.69l20.48,31.56s43.89-4.51,70.22-40.57,122.88-67.62,140.43-58.6,93.62,99.18,131.66,99.18,128.73,31.56,128.73,31.56H4096v117.21H0V1930.85s49.74-153.27,73.14-121.72,23.41,58.6,23.41,58.6l38,40.57,64.37-40.57s17.55-49.59,41,0,61.44,85.65,73.14,85.65,76.07-40.57,90.7-22.54,102.4,0,102.4,0l73.14,18Z"/><g id="islands-2" data-name="islands"><path class="cls-2" d="M249.77,592s-39.41-28.48-25.67-76,23.53-24.86,46.32-61.33,30.15-52.49,30.15-52.49l-13.95-22.39s-9-77.1,5.94-105.28,76.68-43.91,76.68-43.91l27.45-29,29.14-1.92s15.68-16.57,50.69,8.31,2.43,38.69,81.29,29.6,53.64-11.31,53.64-11.31,57.8-11.59,102.59,36,20.57-5.24,64.64,30.7l44.06,35.94s-5.13-15.2,17.87,18.24,20.29,56.93,20.29,56.93l-24,17.12a279.36,279.36,0,0,1-65.16,27.61c-37,10.21-35.53,33.42-35.53,33.42l-33.07,6.07-57.8,11.59s-20.09,13-34.8,45-43.61,37.84-43.61,37.84-8.85,58.86-96.53,60.76-36,25.69-105.06-8.6S279.16,594,279.16,594Z"/><path class="cls-2" d="M627.14,209.71,597.27,200s2.71-23.49-2.43-38.69,27.45-29,27.45-29S659.52,126,678.15,89.8c23.53-24.86,36.95,55.83,36.95,55.83s45.31-10.76,57,42.85c10.27,30.4,19.08,37.59,3.15,50.29s-45.8,3-45.8,3l-20.82,1.37S664.37,203.37,627.14,209.71Z"/><path class="cls-2" d="M715.07,611.8s-33.55-1.67-27.65-40.91S709.25,519,709.25,519L738.39,517s11.28-20.17,51.46-46.13c23.77-21,41.63-2.75,41.63-2.75S859.17,443,878.77,422.3c9.05,11.06-13.5,51.39-13.5,51.39s15.89,53.34,4.85,77.37-24.25,13.26-24.25,13.26-.28,62.17-53.92,73.49C718.22,662.1,715.07,611.8,715.07,611.8Z"/><path class="cls-2" d="M330.74,749.84l-1.21-19.34,31.12-37L403,702.33s72.76-39.77,140.83-21S630.51,730,630.51,730s18.11,22.11,2.18,34.82,26.92,29.3-28.46,79.57c-23.77,21-37.47,2.47-37.47,2.47L531,810.42l-41.15,10.49s-28.9,5.79-74.21,16.55c-16.65,1.1-65.61-46.17-83.47-64.41S330.74,749.84,330.74,749.84Z"/><path class="cls-2" d="M457.71,974.54s2.75-89.53,18.91-98.37S530,861,569,881.73c45.31-10.76,78.62-13,78.62-13l12.73,3s-6.63,27.63,2.91,46.42-60.75,31.2-60.75,31.2l-19.85,16.85-20.09,13-25,1.65-15.2,24.31-25,1.65Z"/></g><path id="blob" class="cls-2" d="M721.79,1609.66s0-51.77-22.08-67.94-88.31-48.53-88.31-48.53l-22.08-48.53-28.39-45.3s0-35.59,15.77-45.3,50.46-90.59,47.31-103.53S642.94,1202,642.94,1202s0-55,9.46-58.24,44.16-29.12,59.93-38.83,9.46-9.71,9.46-9.71l28.39-35.59s6.31-45.3,18.92-45.3,25.23,6.47,53.62-45.3,50.46-12.94,50.46-12.94l25.23-12.94S926.8,962.56,930,985.21s44.16,29.12,44.16,29.12,59.93,55,72.54,51.77,69.39,0,69.39,0l18.92,6.47,53.62-12.94,56.77,9.71s28.39,42.06,50.46,48.53,41,48.53,41,48.53l-12.62,48.53,3.15,29.12a126.05,126.05,0,0,0-15.77,32.35c-6.31,19.41,6.31,48.53,6.31,48.53L1299,1357.29l-22.08,51.77-3.15,32.35s12.62,32.35-9.46,42.06-78.85,100.3-78.85,100.3l-12.62,93.83s-59.93,38.83-72.54,55-123-12.94-123-12.94-34.69-58.24-53.62-58.24-82-35.59-82-35.59Z"/><path id="midguard" class="cls-2" d="M1753.4,1090.9l-.51-34.74,39.45-52.71s44.23-15.86,60.91-33.48c0,0,31.53-15.67,46.57-.69l37.72-26.62s8.95,32.45,38.26,10.29,85.6-81.63,109-75.46,52.15-52.9,52.15-52.9l88.55-25.2s88.69,22.58,114.18,9.17,126.7-41.93,126.7-41.93,51.88-71.48,101-44c0,0-21.07,6.83-27.17,24.29s-26.88,43.84-39.45,52.71-31.5,17.84-37.49,41.82.67,45.6.67,45.6-23.12,11.2-8,30.53c0,0-4.07,10.92,21.62,30.09S2512.08,995,2512.08,995s17.42,32.32,30.18,36.48,20,60.52,20,60.52-28.9,50.38-24.41,67.69-3.33,61.47-3.33,61.47l-51.32,108.75s-37.75,24.45-48.08,42-33,57-62.7,55.23-62.16-51.21-89.71-53-47.88,55.09-47.88,55.09-12.25,30.5-22.8,32.83-34.55,54.81-30.54,61.27-45.54,91.9-45.54,91.9l-129,12.77s-46.79-14.51-68-16.37-178.58-49.49-178.58-49.49,14.66-11.08-.55-36.92,3.53-47.84,9.43-78.33,33.55-22.22-137.76-152.17c0,0,14.63-13.25-.77-52.12l-.51-34.74s42.27-5.11,48.3-26.85,16-61,28.61-69.86S1740.6,1084.57,1753.4,1090.9Z"/><path id="bird" class="cls-2" d="M3466.45,1512.38s3.64,19,7.92,42.4,10,62.51,4.71,68.48-39.78,27.1-39.78,27.1-30.37-10.38-41.5-2.79-35-.07-67.12,7.48-51.36-10.42-41.79-40.83,18.83-75,18.83-75l16.78-40.11,41.31-11.41s39.15-31.44,36.77-41.77-5-58.7,6.12-90.19,44-82.51,44-82.51l15.15-46.16s23.56-30.39,28.66-43.42,7.52-50.52-.75-59.23-51.49-41.39-52.43-59.87c0,0-53.41-30.53-67.4-30.56s-26.7-15.27-74.57-13.72l-48.59-81.6s-26.2-41.89-34.29-67.45-12.84-46.21,1.65-72.81c0,0,29.75-17.88,55-18.37s37.23-20.58,56.63-19.46,42.6,28.34,58,20.21,48-18.39,57.89-10.76,40.7,15.29,59,14.78,40.39,1.16,53.14-31.42,10.7-52.69-6.13-84.24,26.94-73.31,26.94-73.31l91.75,11.58s58.37-13.48,77.93-5.29,35.27,38.1,98.23,62.13l45,38.67,69.47,26.76s19.55,8.19,23.35,34.28,16.18,51.11-7.23,88.56-24.43,114.61-24.43,114.61L3988.11,1071s9.18,51.1,8.38,63.59-10.53,35.84,2.82,55.43l13.34,19.59-25.15,31.47s-20.82-16.88-82.55,15.6S3843,1306,3843,1306s-41.54,45-77.34,57.46-68.59,63.45-68.59,63.45-23.54,6.48-41.7,38c0,0-15.26-8.72-39.61,10.25l-24.35,19s-40.07-10.94-62-5.55-23.39,13.54-44.38,13.5S3466.45,1512.38,3466.45,1512.38Z"/><path id="moon" class="cls-2" d="M2269.79,656.9l-44.14-15.49s4.79-14.84-7.21-51.27-4.55-90-4.55-90,46.24-102.72,62.83-108.46,41.13,4.52,55.66-15.16,40.6-70,49.39-71.88,48.93.65,66.44-13S2539.75,231.25,2560,188.8c0,0,80.13-14.83,100.55-32.44s7.55-38.65,43.75-39.16,131.18,9.69,131.18,9.69,34.14-14.45,58.68-4.19,52.26,56.34,84.7,77.63,143.2,48.6,154.15,75.58-1.49,65.56,22.23,98.66,36.83,88.92,55.45,92.15c0,0-15.92,100.14-22.73,106s4.25,47.75,4.25,47.75l-39.71,57.1-54.28,71.81s-42,3.42-45.7,40.13,9.5,97.5-9.83,132-51.27,82.78-51.27,82.78-45.88,15.29-64.63-7.81c0,0-5.74,17.81-33.19,11.48s-84.2-8.08-105.65,2.57-82.22-4.07-82.22-4.07-22.41,13.61-36.16,5.48-14.85-25-44.18-20.46c0,0,45.74-35.16,52.51-46s47.93-1.35,50.7-25.16L2818,836.08s46.2-107.69,39.15-136.6-24.85-55-24.85-55l-4.18-37.81s-19.78-30.07-71.58-21.82-93.92,1.73-93.92,1.73-23.26,31.49-31.17,20.45-25.63-27.17-49.1-25.49l-15-44.91-37.4-31.3-37.26-11.43s-36.34-19.36-56.73,3.22c0,0-24.53-10.26-35.17,7.48s-61.2,62.78-68.89,81.55c0,0-21.56-4.26-29.29,9.55S2260.82,633.92,2269.79,656.9Z"/><path id="head" class="cls-2" d="M1183.29,189.25s12.77-9.37,21.28-40.7c0,0,17,9.51,23.41,0s-14.9,6.55,31.92,20.35,123.43,2.89,144.71,20.35,42.56,45.84,78.74,50.21,80.87,21.83,80.87,21.83,36.81,37.11,70.54,50.21,27.35,76.41,27.35,93.87-14.9,93.87-14.9,93.87l15.38,50.21s-15.38,24-13.25,52.39-3.62,58.94-14.58,69.86,1.81,72,10.32,78.59.63,52.39-10.32,74.22-1.48,54.58,27.83,69.86S1694,940.21,1694,940.21l25.54,45.84s-56.82-76.41-84.8-50.21-42.88,50.21-42.88,50.21-25.54-26.2-89.38-26.2-61.71-30.56-66-54.58,17-67.67-36.18-98.24-110.66-28.38-123.43-56.76-14.9-49-25.54-62.7-12.77-35.53-4.26-55.18S1162,588.75,1162,588.75s-36.18-30.56-53.2-34.93,2.13-61.12,0-78.59,4.92-48-7.12-72-26.27-37.11,0-72,62.44-72,62.44-89.5S1183.29,189.25,1183.29,189.25Z"/></g></svg>